# xmcd CD database file
#
# Track frame offsets:
#	150
#	16047
#	26230
#	36245
#	49015
#	64845
#	82912
#	96662
#	108710
#	121250
#	129137
#	143085
#	155792
#	169137
#	184320
#	197760
#	207840
#	221632
#	234057
#	243502
#
# Disc length: 3398 seconds
#
# Revision: 0
# Processed by: cddbd v1.5.1PL2 Copyright (c) Steve Scherf et al.
# Submitted via: CDex 1.51
#
DISCID=1a0d4414
DTITLE=Varios - Lembranças Sertanejas
DYEAR=2001
DGENRE=Country
TTITLE0=Raul Torres e Flôrencio - Trovas Gaúchas
TTITLE1=Tonico e Tinoco - De Vencido a Vencedor
TTITLE2=Tibagi e Miltinho - Orgulho
TTITLE3=Miro Alves e Neri Campos - Recordações
TTITLE4=José Fortuna e Pitangueira - Lembranças
TTITLE5=Caçula e Marinheiro - Igrejinha da Serra
TTITLE6=Nonô e Naná - Uma Casa de Caboclo
TTITLE7=Abel e Caim - Rio das Lágrimas
TTITLE8=Leôncio e Leonel - Via Sacra no Sertão
TTITLE9=Zé Matão e Carrerinho - Decepção
TTITLE10=Carolina e Robertinho - Flor do Cafezal
TTITLE11=Mococa e Moraci - Primeira a Esposa
TTITLE12=Trio Mineiro - Bouquet de Rosas
TTITLE13=Pedro Bento e Zé da Estrada - Boiada
TTITLE14=Duo Brasil Moreno - Bis Para o Amor
TTITLE15=Bispo José e Madre Maria - Respeiro à Própria Vida
TTITLE16=Canário e Passarinho - Meu Passarinho
TTITLE17=Belmiro e Belman - Flor de Lotus
TTITLE18=Pirapó e Cambará - Tô Aqui Pra Te Ajudar
TTITLE19=Carlinhos Mafasoli - Lágrimas de Quem Ama
EXTD=YEAR: 2001
EXTT0=
EXTT1=
EXTT2=
EXTT3=
EXTT4=
EXTT5=
EXTT6=
EXTT7=
EXTT8=
EXTT9=
EXTT10=
EXTT11=
EXTT12=
EXTT13=
EXTT14=
EXTT15=
EXTT16=
EXTT17=
EXTT18=
EXTT19=
PLAYORDER=
